<?xml version="1.0" standalone="no"?><!DOCTYPE svg PUBLIC "-//W3C//DTD SVG 1.1//EN" "http://www.w3.org/Graphics/SVG/1.1/DTD/svg11.dtd"><svg t="1765105999944" class="icon" viewBox="0 0 1024 1024" version="1.1" xmlns="http://www.w3.org/2000/svg" p-id="3170" xmlns:xlink="http://www.w3.org/1999/xlink" width="200" height="200"><path d="M704.32256 446.2848c9.50784-7.04 12.68224-17.2544 7.04512-22.89152a22.89152 22.89152 0 0 0-27.4688 2.816c-9.50784 7.04512-12.68224 17.25952-7.04512 22.89664a22.89152 22.89152 0 0 0 27.4688-2.82112zM549.7088 654.42816c-16.54784 9.86624-24.29952 25.35936-16.54784 35.2256a38.05184 38.05184 0 0 0 45.0816 3.16416v-1.40288c16.54784-9.86624 24.29952-25.36448 16.54784-35.22048a38.05184 38.05184 0 0 0-45.0816-1.7664zM344.38144 653.73184c-17.25952 16.90624-20.78208 41.20064-8.09984 52.12672 12.67712 10.91584 36.98176 4.93056 53.88288-13.03552 16.19968-17.96096 20.77696-41.21088 8.09984-52.12672-12.672-10.92096-36.62336-3.87072-53.88288 13.03552zM716.99968 494.18752a28.8768 28.8768 0 0 0-35.21536 3.16928c-11.62752 8.45312-15.49824 20.78208-8.45824 27.4688a28.88704 28.88704 0 0 0 35.2256-3.16928l1.05472-1.05472c11.97568-7.04512 15.8464-20.78208 7.39328-26.41408z" fill="#9455C1" p-id="3171"></path><path d="M511.14496 0C228.84864 0 0 228.84352 0 511.14496s228.84864 511.14496 511.14496 511.14496c282.29632 0 511.14496-228.84864 511.14496-511.14496S793.4464 0 511.14496 0zM419.39968 464.24576l22.18496 22.18496a16.90112 16.90112 0 0 1 0 24.6528l-15.8464 13.37856a18.30912 18.30912 0 0 1-25.00608-3.16416l-20.07552-24.6528a19.0208 19.0208 0 0 1 2.816-26.41408l7.75168-5.9904a21.85216 21.85216 0 0 1 28.17536 0.00512z m41.20576 49.31072a23.69536 23.69536 0 0 1 7.74656 0 43.28448 43.28448 0 0 1 28.52864 10.2144c12.32896 13.73696 15.85152 29.93664 27.11552 35.22048 20.5056 4.82304 41.9328 3.968 61.99296-2.46272a140.90752 140.90752 0 0 1-95.80032 42.96704 67.97312 67.97312 0 0 1-64.45056-47.8976h-1.05984c-0.35328-2.816-1.408-7.04 0.70144-9.15456l35.2256-28.88704zM281.33888 278.64576c14.4384 16.19968 45.78304 66.21184 65.86368 94.03392 20.07552 27.82208 43.66848 55.64416 43.66848 55.64416a15.50336 15.50336 0 0 1-4.93056 23.59808l-12.32384 8.45312a17.60256 17.60256 0 0 1-25.35936-5.28384s-25.71264-42.26048-47.54944-88.75008a428.37504 428.37504 0 0 1-34.16576-79.24224c-2.81088-11.97568 0.35328-24.65792 14.7968-8.45312z m421.2224 345.14432a275.03616 275.03616 0 0 1-214.8352 127.49312 75.7248 75.7248 0 0 1-51.42016-19.36896s-87.69536 55.296-135.59296 10.56768c-47.8976-44.73344-10.92096-105.31328 13.73696-144.0512a434.46272 434.46272 0 0 1 61.63456-70.44096l5.63712 6.69184a40.84224 40.84224 0 0 0 21.13024 13.38368c-0.4608 3.2768-0.4608 6.58944 0 9.86112a90.86464 90.86464 0 0 0 84.87936 63.39584h6.69184a167.96672 167.96672 0 0 0 108.48256-50.01216l55.63904-57.75872-79.59552 21.12512c-11.46368 3.24608-23.30624 5.0176-35.22048 5.28384a33.09568 33.09568 0 0 1-10.91584 0 65.23392 65.23392 0 0 1-5.28384-8.45312 107.55584 107.55584 0 0 0-15.49312-21.48352 67.29728 67.29728 0 0 0-42.96704-20.07552 38.3488 38.3488 0 0 0-10.92096-20.0704l-6.33856-5.98528a563.5072 563.5072 0 0 1 125.73184-70.44096c59.87328-24.29952 122.20928-29.58336 152.15104-6.69184 42.25024 32.05632 41.89696 130.67264-27.13088 237.0304z" fill="#9455C1" p-id="3172"></path><path d="M680.72448 580.82304a32.75264 32.75264 0 0 0-38.38976 5.98528c-12.68224 10.56768-15.8464 25.0112-7.39328 32.0512a32.74752 32.74752 0 0 0 38.38464-5.98528l0.71168-0.70656c14.08-10.56768 16.19456-25.00608 6.68672-31.34464z" fill="#9455C1" p-id="3173"></path></svg>