<?xml version="1.0" standalone="no"?><!DOCTYPE svg PUBLIC "-//W3C//DTD SVG 1.1//EN" "http://www.w3.org/Graphics/SVG/1.1/DTD/svg11.dtd"><svg t="1765106231199" class="icon" viewBox="0 0 1024 1024" version="1.1" xmlns="http://www.w3.org/2000/svg" p-id="23510" xmlns:xlink="http://www.w3.org/1999/xlink" width="200" height="200"><path d="M511.5392 510.5664m-460.8 0a460.8 460.8 0 1 0 921.6 0 460.8 460.8 0 1 0-921.6 0Z" fill="#60AEFF" p-id="23511"></path><path d="M512 239.2064A272.7936 272.7936 0 1 0 784.7936 512 273.1008 273.1008 0 0 0 512 239.2064z m0 508.3136a235.52 235.52 0 1 1 235.52-235.52 235.9296 235.9296 0 0 1-235.52 235.52z" fill="#FFFFFF" p-id="23512"></path><path d="M599.9616 512.4096a18.5856 18.5856 0 0 0 0-37.12h-58.4704l69.8368-54.0672a18.5344 18.5344 0 1 0-22.528-29.3376l-76.8 59.2384-76.8-59.2384a18.5344 18.5344 0 1 0-22.7328 29.3376l70.0416 54.0672H424.0384a18.5856 18.5856 0 0 0 0 37.12h69.376v49.4592H424.0384a18.5856 18.5856 0 0 0 0 37.12h69.376v46.08a18.5856 18.5856 0 0 0 37.1712 0v-46.08h69.376a18.5856 18.5856 0 0 0 0-37.12h-69.376v-49.4592z" fill="#FFFFFF" p-id="23513"></path></svg>