<?xml version="1.0" standalone="no"?><!DOCTYPE svg PUBLIC "-//W3C//DTD SVG 1.1//EN" "http://www.w3.org/Graphics/SVG/1.1/DTD/svg11.dtd"><svg t="1765106339458" class="icon" viewBox="0 0 1024 1024" version="1.1" xmlns="http://www.w3.org/2000/svg" p-id="31615" xmlns:xlink="http://www.w3.org/1999/xlink" width="200" height="200"><path d="M368.57856 122.88a61.44 61.44 0 0 0-61.44 61.44v163.84h81.92a20.48 20.48 0 0 1-20.48-20.48v-122.88a20.48 20.48 0 0 1 20.48-20.48h245.76a20.48 20.48 0 0 1 20.48 20.48v122.88a20.48 20.48 0 0 1-20.48 20.48h81.92V184.32a61.44 61.44 0 0 0-61.44-61.44h-286.72z" fill="#38D36A" p-id="31616"></path><path d="M860.16 245.76a102.4 102.4 0 0 1 102.4 102.4v512a61.44 61.44 0 0 1-61.44 61.44H122.88a61.44 61.44 0 0 1-61.44-61.44V348.16a102.4 102.4 0 0 1 102.4-102.4h696.32zM552.96 552.96h-81.92v81.92h-81.92v81.92h81.92v81.92h81.92v-81.92h81.92v-81.92h-81.92v-81.92z" fill="#38D36A" p-id="31617"></path><path d="M61.44 345.6A99.84 99.84 0 0 1 161.28 245.76h701.44A99.84 99.84 0 0 1 962.56 345.6V450.56H61.44v-104.96z" fill="#69F8AF" p-id="31618"></path></svg>