<?xml version="1.0" standalone="no"?><!DOCTYPE svg PUBLIC "-//W3C//DTD SVG 1.1//EN" "http://www.w3.org/Graphics/SVG/1.1/DTD/svg11.dtd"><svg t="1765106087734" class="icon" viewBox="0 0 1024 1024" version="1.1" xmlns="http://www.w3.org/2000/svg" p-id="13675" xmlns:xlink="http://www.w3.org/1999/xlink" width="200" height="200"><path d="M512 510.9m-448.3 0a448.3 448.3 0 1 0 896.6 0 448.3 448.3 0 1 0-896.6 0Z" fill="#FE0549" p-id="13676"></path><path d="M739.4 784.5c-3.2-1.1 0-45.6 0-45.6H283.5v45.6h-45.6v45.6H785v-45.6h-45.6zM312.7 594.8c2.8 2.7 6.5 4 10.1 4 3.9 0 7.7-1.5 10.6-4.6 5.6-5.8 5.3-15-0.5-20.6L246 491.4c-5.8-5.5-15.1-5.3-20.7 0.6-5.5 5.8-5.3 15.1 0.6 20.6l86.8 82.2zM328.8 644.3c-1.3-8-8.8-13.4-16.8-12L204.3 650c-8 1.3-13.4 8.8-12.1 16.8 1.2 7.1 7.4 12.2 14.4 12.2 0.8 0 1.6 0 2.4-0.2l107.7-17.7c8-1.3 13.5-8.9 12.1-16.8zM830.6 602.1l-228-182.4 91.2-91.2L557 191.8l-228 228 136.8 136.8 91.2-91.2 182.4 228c38 40.6 91.2 0 91.2 0v-91.3z" fill="#FFFFFF" p-id="13677"></path></svg>