<?xml version="1.0" standalone="no"?><!DOCTYPE svg PUBLIC "-//W3C//DTD SVG 1.1//EN" "http://www.w3.org/Graphics/SVG/1.1/DTD/svg11.dtd"><svg t="1765106299275" class="icon" viewBox="0 0 1024 1024" version="1.1" xmlns="http://www.w3.org/2000/svg" p-id="29436" xmlns:xlink="http://www.w3.org/1999/xlink" width="200" height="200"><path d="M545.706667 772.48a763.52 763.52 0 0 0 111.530666-81.749333l169.429334 169.472a469.589333 469.589333 0 0 1-201.898667 107.52l-0.298667-1.024-1.493333-4.778667-12.714667-39.466667-12.373333-36.394666-5.290667-14.762667-4.352-11.221333a826.88 826.88 0 0 0-37.290666-78.250667z m348.928-261.461333a829.013333 829.013333 0 0 0 71.253333 25.728c4.864 1.493333 9.813333 2.133333 14.634667 1.877333a465.152 465.152 0 0 1-95.914667 258.816l-167.850667-167.808a812.970667 812.970667 0 0 0 105.301334-152.917333c23.552 12.586667 47.786667 24.021333 72.576 34.304zM242.858667 896.682667c74.922667-16.938667 154.453333-45.994667 228.181333-82.858667a725.717333 725.717333 0 0 1 39.936 82.901333l4.010667 10.709334 7.381333 21.290666 11.221333 33.834667 5.717334 18.005333a467.2 467.2 0 0 1-296.277334-83.882666z m734.506666-445.994667l13.824 4.565333a743.68 743.68 0 0 1-133.12-56.021333l1.706667-4.138667c2.56-6.4 5.333333-14.378667 8.277333-23.552l6.101334-19.925333 3.114666-10.965333 6.442667-23.552 6.528-25.173334 6.4-26.026666 4.053333-17.066667a466.602667 466.602667 0 0 1 76.672 201.856zM170.794667 189.738667c0.725333 9.813333 4.864 19.456 12.373333 26.965333l413.610667 413.610667a684.885333 684.885333 0 0 1-96.512 69.973333 830.421333 830.421333 0 0 0-92.757334-110.336C320 502.442667 158.549333 411.989333 57.173333 395.52a469.461333 469.461333 0 0 1 109.824-201.685333z m268.288-141.44L432.128 30.293333a829.781333 829.781333 0 0 0 192.426667 299.989334c38.4 38.4 79.957333 72.618667 124.16 102.4a724.48 724.48 0 0 1-92.416 136.448L243.498667 156.330667a42.453333 42.453333 0 0 0-23.296-11.946667 466.986667 466.986667 0 0 1 218.88-96.085333zM43.776 479.701333c80.384 12.672 227.541333 94.72 303.402667 170.624a753.365333 753.365333 0 0 1 77.696 91.093334c-77.824 38.016-162.432 66.730667-238.208 79.36a42.453333 42.453333 0 0 0-19.968 9.088 467.541333 467.541333 0 0 1-123.264-344.96zM831.36 168.106667l-0.896 3.242666-2.432 11.52-8.064 36.266667-8.874667 37.333333-9.130666 36.010667-5.973334 22.058667-5.632 19.626666-5.248 16.64a365.269333 365.269333 0 0 1-0.938666 2.730667 752.896 752.896 0 0 1-254.848-310.4 466.944 466.944 0 0 1 302.037333 125.013333z" fill="#D42A29" p-id="29437"></path></svg>